<svg xmlns="http://www.w3.org/2000/svg" xmlns:xlink="http://www.w3.org/1999/xlink" width="200" zoomAndPan="magnify" viewBox="0 0 150 149.999998" height="200" preserveAspectRatio="xMidYMid meet" version="1.0"><defs><clipPath id="e84809ef61"><path d="M 47.714844 47.714844 L 102.464844 47.714844 L 102.464844 102.464844 L 47.714844 102.464844 Z M 47.714844 47.714844 " clip-rule="nonzero"/></clipPath></defs><g clip-path="url(#e84809ef61)"><path fill="#000000" d="M 89.609375 77.371094 C 89.589844 77.371094 89.570312 77.371094 89.554688 77.371094 C 89.066406 77.371094 88.65625 76.992188 88.625 76.496094 C 88.402344 72.71875 86.847656 69.128906 84.246094 66.386719 C 81.648438 63.644531 78.144531 61.898438 74.382812 61.472656 C 73.875 61.414062 73.507812 60.957031 73.566406 60.445312 C 73.621094 59.933594 74.085938 59.566406 74.59375 59.625 C 78.789062 60.097656 82.695312 62.046875 85.597656 65.105469 C 88.5 68.167969 90.234375 72.171875 90.480469 76.386719 C 90.511719 76.902344 90.121094 77.339844 89.609375 77.371094 Z M 74.136719 66.339844 C 74.191406 65.828125 74.652344 65.464844 75.164062 65.519531 C 77.664062 65.800781 79.992188 66.960938 81.71875 68.785156 C 83.445312 70.605469 84.476562 72.992188 84.628906 75.503906 C 84.65625 76.015625 84.265625 76.457031 83.753906 76.484375 C 83.734375 76.488281 83.714844 76.488281 83.699219 76.488281 C 83.210938 76.488281 82.796875 76.105469 82.769531 75.613281 C 82.648438 73.539062 81.792969 71.570312 80.367188 70.0625 C 78.941406 68.558594 77.019531 67.601562 74.953125 67.367188 C 74.445312 67.308594 74.078125 66.847656 74.136719 66.339844 Z M 88.113281 89.367188 C 88.085938 89.394531 87.003906 90.417969 86.976562 90.445312 C 84.976562 92.367188 81.832031 92.75 79.226562 92.140625 C 78.273438 91.917969 77.34375 91.597656 76.449219 91.207031 C 72.402344 89.449219 68.5625 86.339844 65.480469 83.066406 C 62.378906 79.8125 59.480469 75.816406 57.941406 71.679688 C 57.601562 70.761719 57.328125 69.820312 57.15625 68.855469 C 56.6875 66.21875 57.238281 63.105469 59.265625 61.210938 C 59.292969 61.179688 60.371094 60.15625 60.402344 60.132812 C 62.410156 58.367188 64.125 60.605469 65.726562 62.324219 C 67.09375 63.792969 69.390625 66.210938 69.011719 68.417969 C 68.800781 69.644531 67.496094 70.539062 67.042969 71.742188 C 66.46875 73.277344 66.738281 74.804688 67.707031 76.113281 C 68.355469 76.992188 69.144531 77.929688 69.988281 78.796875 C 70.808594 79.683594 71.699219 80.523438 72.542969 81.214844 C 73.800781 82.253906 75.3125 82.609375 76.875 82.113281 C 78.097656 81.726562 79.0625 80.472656 80.296875 80.328125 C 82.523438 80.0625 84.816406 82.488281 86.207031 83.933594 C 87.839844 85.621094 89.980469 87.457031 88.113281 89.367188 Z M 74.996094 47.707031 C 59.929688 47.707031 47.71875 59.921875 47.71875 74.988281 C 47.71875 90.054688 59.929688 102.265625 74.996094 102.265625 C 90.0625 102.265625 102.277344 90.054688 102.277344 74.988281 C 102.277344 59.921875 90.0625 47.707031 74.996094 47.707031 " fill-opacity="1" fill-rule="nonzero"/></g></svg>