<svg xmlns="http://www.w3.org/2000/svg" xmlns:xlink="http://www.w3.org/1999/xlink" width="200" zoomAndPan="magnify" viewBox="0 0 150 149.999998" height="200" preserveAspectRatio="xMidYMid meet" version="1.0"><defs><clipPath id="e890a6918c"><path d="M 55.566406 62.890625 L 90.816406 62.890625 L 90.816406 95.140625 L 55.566406 95.140625 Z M 55.566406 62.890625 " clip-rule="nonzero"/></clipPath></defs><g clip-path="url(#e890a6918c)"><path fill="#000000" d="M 86.796875 78.769531 L 86.796875 68.253906 C 86.796875 67.4375 86.476562 66.664062 85.898438 66.085938 C 85.324219 65.515625 84.535156 65.1875 83.726562 65.1875 L 79.65625 65.1875 L 79.65625 63.585938 C 79.65625 63.25 79.378906 62.976562 79.042969 62.976562 C 78.703125 62.976562 78.429688 63.25 78.429688 63.585938 L 78.429688 65.1875 L 71.800781 65.1875 L 71.800781 63.585938 C 71.800781 63.25 71.527344 62.976562 71.1875 62.976562 C 70.851562 62.976562 70.574219 63.25 70.574219 63.585938 L 70.574219 65.1875 L 63.945312 65.1875 L 63.945312 63.585938 C 63.945312 63.25 63.671875 62.976562 63.335938 62.976562 C 62.996094 62.976562 62.722656 63.25 62.722656 63.585938 L 62.722656 65.1875 L 58.648438 65.1875 C 57.839844 65.1875 57.050781 65.515625 56.480469 66.085938 C 55.902344 66.664062 55.582031 67.4375 55.582031 68.253906 L 55.582031 86.660156 C 55.582031 87.476562 55.902344 88.246094 56.480469 88.828125 C 57.050781 89.398438 57.839844 89.726562 58.648438 89.726562 L 73.984375 89.726562 C 75.316406 92.957031 78.496094 95.238281 82.199219 95.238281 C 87.097656 95.238281 91.082031 91.253906 91.082031 86.355469 C 91.082031 83.140625 89.359375 80.328125 86.796875 78.769531 Z M 82.199219 77.472656 C 81.183594 77.472656 80.210938 77.652344 79.296875 77.96875 L 79.296875 74.183594 L 85.570312 74.183594 L 85.570312 78.140625 C 84.53125 77.714844 83.394531 77.472656 82.199219 77.472656 Z M 75.332031 80.730469 L 71.800781 80.730469 L 71.800781 74.183594 L 78.074219 74.183594 L 78.074219 78.496094 C 77.015625 79.054688 76.085938 79.8125 75.332031 80.730469 Z M 64.304688 80.730469 L 64.304688 74.183594 L 70.574219 74.183594 L 70.574219 80.730469 Z M 70.574219 81.953125 L 70.574219 88.5 L 64.304688 88.5 L 64.304688 81.953125 Z M 56.808594 74.183594 L 63.078125 74.183594 L 63.078125 80.730469 L 56.808594 80.730469 Z M 57.347656 66.953125 C 57.691406 66.609375 58.164062 66.414062 58.648438 66.414062 L 62.722656 66.414062 L 62.722656 67.917969 C 62.722656 68.257812 62.996094 68.53125 63.335938 68.53125 C 63.671875 68.53125 63.945312 68.257812 63.945312 67.917969 L 63.945312 66.414062 L 70.574219 66.414062 L 70.574219 67.917969 C 70.574219 68.257812 70.851562 68.53125 71.1875 68.53125 C 71.527344 68.53125 71.800781 68.257812 71.800781 67.917969 L 71.800781 66.414062 L 78.429688 66.414062 L 78.429688 67.917969 C 78.429688 68.257812 78.703125 68.53125 79.042969 68.53125 C 79.378906 68.53125 79.65625 68.257812 79.65625 67.917969 L 79.65625 66.414062 L 83.726562 66.414062 C 84.214844 66.414062 84.6875 66.609375 85.03125 66.953125 C 85.378906 67.300781 85.570312 67.761719 85.570312 68.253906 L 85.570312 72.957031 L 56.808594 72.957031 L 56.808594 68.253906 C 56.808594 67.761719 57 67.300781 57.347656 66.953125 Z M 57.347656 87.960938 C 57 87.613281 56.808594 87.148438 56.808594 86.660156 L 56.808594 81.953125 L 63.078125 81.953125 L 63.078125 88.5 L 58.648438 88.5 C 58.164062 88.5 57.6875 88.304688 57.347656 87.960938 Z M 71.800781 88.5 L 71.800781 81.953125 L 74.496094 81.953125 C 73.75 83.253906 73.316406 84.753906 73.316406 86.355469 C 73.316406 87.097656 73.417969 87.8125 73.589844 88.5 Z M 82.199219 94.011719 C 77.976562 94.011719 74.542969 90.578125 74.542969 86.355469 C 74.542969 82.132812 77.976562 78.699219 82.199219 78.699219 C 86.421875 78.699219 89.859375 82.132812 89.859375 86.355469 C 89.859375 90.578125 86.421875 94.011719 82.199219 94.011719 Z M 82.199219 94.011719 " fill-opacity="1" fill-rule="nonzero"/></g><path fill="#000000" d="M 85.054688 85.652344 L 82.8125 85.652344 L 82.8125 82.164062 C 82.8125 81.824219 82.539062 81.550781 82.199219 81.550781 C 81.863281 81.550781 81.589844 81.824219 81.589844 82.164062 L 81.589844 86.261719 C 81.589844 86.601562 81.863281 86.875 82.199219 86.875 L 85.054688 86.875 C 85.394531 86.875 85.667969 86.601562 85.667969 86.261719 C 85.667969 85.925781 85.394531 85.652344 85.054688 85.652344 Z M 85.054688 85.652344 " fill-opacity="1" fill-rule="nonzero"/></svg>