<svg xmlns="http://www.w3.org/2000/svg" xmlns:xlink="http://www.w3.org/1999/xlink" width="500" zoomAndPan="magnify" viewBox="0 0 375 374.999991" height="500" preserveAspectRatio="xMidYMid meet" version="1.0"><defs><clipPath id="5e05b37d16"><path d="M 100 105.578125 L 263.5 105.578125 L 263.5 269.078125 L 100 269.078125 Z M 100 105.578125 " clip-rule="nonzero"/></clipPath></defs><path fill="#000000" d="M 161.464844 174.144531 C 161.464844 174.808594 161.5 175.472656 161.5625 176.132812 C 161.628906 176.792969 161.726562 177.449219 161.855469 178.101562 C 161.984375 178.753906 162.144531 179.398438 162.339844 180.03125 C 162.53125 180.667969 162.753906 181.292969 163.011719 181.90625 C 163.265625 182.519531 163.546875 183.121094 163.859375 183.707031 C 164.175781 184.292969 164.515625 184.863281 164.882812 185.414062 C 165.253906 185.964844 165.648438 186.5 166.070312 187.011719 C 166.492188 187.527344 166.9375 188.019531 167.40625 188.488281 C 167.875 188.957031 168.367188 189.402344 168.882812 189.824219 C 169.394531 190.246094 169.929688 190.640625 170.480469 191.011719 C 171.03125 191.378906 171.601562 191.71875 172.1875 192.035156 C 172.773438 192.347656 173.375 192.628906 173.988281 192.882812 C 174.601562 193.140625 175.226562 193.363281 175.863281 193.554688 C 176.496094 193.75 177.140625 193.910156 177.792969 194.039062 C 178.445312 194.167969 179.101562 194.265625 179.761719 194.332031 C 180.421875 194.394531 181.085938 194.429688 181.75 194.429688 C 182.414062 194.429688 183.078125 194.394531 183.738281 194.332031 C 184.398438 194.265625 185.054688 194.167969 185.707031 194.039062 C 186.359375 193.910156 187.003906 193.75 187.636719 193.554688 C 188.273438 193.363281 188.898438 193.140625 189.511719 192.882812 C 190.125 192.628906 190.726562 192.347656 191.3125 192.035156 C 191.898438 191.71875 192.46875 191.378906 193.019531 191.011719 C 193.570312 190.640625 194.105469 190.246094 194.617188 189.824219 C 195.132812 189.402344 195.625 188.957031 196.09375 188.488281 C 196.5625 188.019531 197.007812 187.527344 197.429688 187.011719 C 197.851562 186.5 198.246094 185.964844 198.617188 185.414062 C 198.984375 184.863281 199.324219 184.292969 199.640625 183.707031 C 199.953125 183.121094 200.234375 182.519531 200.488281 181.90625 C 200.746094 181.292969 200.96875 180.667969 201.160156 180.03125 C 201.355469 179.398438 201.515625 178.753906 201.644531 178.101562 C 201.773438 177.449219 201.871094 176.792969 201.9375 176.132812 C 202 175.472656 202.035156 174.808594 202.035156 174.144531 C 200.9375 147.21875 162.5625 147.21875 161.464844 174.144531 Z M 181.75 189.039062 C 180.769531 189.039062 179.800781 188.941406 178.84375 188.75 C 177.882812 188.558594 176.949219 188.273438 176.046875 187.898438 C 175.140625 187.523438 174.285156 187.0625 173.46875 186.519531 C 172.65625 185.972656 171.90625 185.355469 171.214844 184.664062 C 170.523438 183.96875 169.90625 183.21875 169.359375 182.402344 C 168.816406 181.589844 168.359375 180.730469 167.984375 179.824219 C 167.613281 178.917969 167.332031 177.988281 167.140625 177.027344 C 166.949219 176.066406 166.855469 175.097656 166.855469 174.117188 C 166.855469 173.140625 166.953125 172.171875 167.144531 171.210938 C 167.335938 170.25 167.621094 169.320312 167.996094 168.414062 C 168.371094 167.511719 168.832031 166.652344 169.375 165.839844 C 169.921875 165.027344 170.539062 164.273438 171.230469 163.582031 C 171.925781 162.890625 172.675781 162.273438 173.492188 161.730469 C 174.304688 161.1875 175.164062 160.730469 176.070312 160.355469 C 176.976562 159.980469 177.90625 159.699219 178.867188 159.507812 C 179.828125 159.320312 180.796875 159.222656 181.777344 159.226562 C 182.753906 159.226562 183.722656 159.320312 184.683594 159.515625 C 185.644531 159.707031 186.574219 159.988281 187.480469 160.363281 C 188.382812 160.738281 189.242188 161.199219 190.054688 161.746094 C 190.867188 162.289062 191.621094 162.90625 192.3125 163.601562 C 193.003906 164.292969 193.621094 165.046875 194.164062 165.859375 C 194.707031 166.675781 195.164062 167.535156 195.539062 168.4375 C 195.914062 169.34375 196.195312 170.277344 196.386719 171.234375 C 196.574219 172.195312 196.671875 173.164062 196.667969 174.144531 C 196.667969 175.125 196.570312 176.09375 196.378906 177.050781 C 196.1875 178.011719 195.90625 178.945312 195.53125 179.847656 C 195.15625 180.75 194.695312 181.609375 194.148438 182.425781 C 193.605469 183.238281 192.988281 183.988281 192.292969 184.679688 C 191.601562 185.371094 190.847656 185.988281 190.035156 186.53125 C 189.21875 187.078125 188.359375 187.535156 187.457031 187.910156 C 186.550781 188.28125 185.617188 188.5625 184.660156 188.753906 C 183.699219 188.945312 182.730469 189.039062 181.75 189.039062 Z M 181.75 189.039062 " fill-opacity="1" fill-rule="nonzero"/><g clip-path="url(#5e05b37d16)"><path fill="#000000" d="M 181.75 105.578125 C 180.410156 105.578125 179.074219 105.609375 177.738281 105.675781 C 176.402344 105.742188 175.070312 105.839844 173.738281 105.96875 C 172.40625 106.101562 171.078125 106.265625 169.753906 106.460938 C 168.429688 106.65625 167.113281 106.886719 165.800781 107.148438 C 164.488281 107.410156 163.183594 107.703125 161.886719 108.027344 C 160.589844 108.351562 159.300781 108.707031 158.019531 109.097656 C 156.738281 109.484375 155.46875 109.90625 154.210938 110.355469 C 152.949219 110.804688 151.703125 111.289062 150.464844 111.800781 C 149.230469 112.3125 148.007812 112.855469 146.796875 113.425781 C 145.589844 113.996094 144.394531 114.597656 143.214844 115.230469 C 142.035156 115.859375 140.871094 116.519531 139.722656 117.207031 C 138.574219 117.894531 137.445312 118.609375 136.332031 119.355469 C 135.21875 120.097656 134.125 120.867188 133.050781 121.664062 C 131.976562 122.460938 130.921875 123.285156 129.886719 124.132812 C 128.855469 124.980469 127.839844 125.855469 126.851562 126.753906 C 125.859375 127.652344 124.890625 128.574219 123.945312 129.519531 C 122.996094 130.464844 122.074219 131.433594 121.175781 132.425781 C 120.277344 133.417969 119.40625 134.429688 118.554688 135.464844 C 117.707031 136.5 116.882812 137.554688 116.085938 138.628906 C 115.289062 139.703125 114.519531 140.796875 113.777344 141.910156 C 113.035156 143.019531 112.320312 144.152344 111.628906 145.296875 C 110.941406 146.445312 110.285156 147.609375 109.652344 148.789062 C 109.023438 149.96875 108.421875 151.164062 107.847656 152.375 C 107.277344 153.582031 106.734375 154.804688 106.222656 156.042969 C 105.710938 157.277344 105.230469 158.527344 104.777344 159.785156 C 104.328125 161.046875 103.910156 162.316406 103.519531 163.597656 C 103.132812 164.875 102.773438 166.164062 102.449219 167.464844 C 102.125 168.761719 101.832031 170.066406 101.570312 171.378906 C 101.308594 172.691406 101.082031 174.007812 100.886719 175.332031 C 100.6875 176.65625 100.523438 177.980469 100.394531 179.3125 C 100.261719 180.644531 100.164062 181.980469 100.097656 183.316406 C 100.03125 184.652344 100 185.988281 100 187.328125 C 100 188.664062 100.03125 190 100.097656 191.339844 C 100.164062 192.675781 100.261719 194.007812 100.394531 195.339844 C 100.523438 196.671875 100.6875 198 100.886719 199.320312 C 101.082031 200.644531 101.308594 201.964844 101.570312 203.273438 C 101.832031 204.585938 102.125 205.890625 102.449219 207.191406 C 102.773438 208.488281 103.132812 209.777344 103.519531 211.058594 C 103.910156 212.335938 104.328125 213.609375 104.777344 214.867188 C 105.230469 216.128906 105.710938 217.375 106.222656 218.609375 C 106.734375 219.847656 107.277344 221.070312 107.847656 222.277344 C 108.421875 223.488281 109.023438 224.683594 109.652344 225.863281 C 110.285156 227.042969 110.941406 228.207031 111.628906 229.355469 C 112.320312 230.503906 113.035156 231.632812 113.777344 232.746094 C 114.519531 233.855469 115.289062 234.949219 116.085938 236.023438 C 116.882812 237.101562 117.707031 238.152344 118.554688 239.1875 C 119.40625 240.222656 120.277344 241.234375 121.175781 242.226562 C 122.074219 243.21875 122.996094 244.1875 123.945312 245.132812 C 124.890625 246.078125 125.859375 247 126.851562 247.898438 C 127.839844 248.796875 128.855469 249.671875 129.886719 250.519531 C 130.921875 251.367188 131.976562 252.191406 133.050781 252.988281 C 134.125 253.785156 135.21875 254.554688 136.332031 255.300781 C 137.445312 256.042969 138.574219 256.757812 139.722656 257.445312 C 140.871094 258.132812 142.035156 258.792969 143.214844 259.421875 C 144.394531 260.054688 145.589844 260.65625 146.796875 261.226562 C 148.007812 261.800781 149.230469 262.34375 150.464844 262.855469 C 151.703125 263.367188 152.949219 263.847656 154.210938 264.296875 C 155.46875 264.75 156.738281 265.167969 158.019531 265.554688 C 159.300781 265.945312 160.589844 266.300781 161.886719 266.625 C 163.183594 266.953125 164.488281 267.246094 165.800781 267.503906 C 167.113281 267.765625 168.429688 267.996094 169.753906 268.191406 C 171.078125 268.386719 172.40625 268.550781 173.738281 268.683594 C 175.070312 268.8125 176.402344 268.914062 177.738281 268.976562 C 179.074219 269.042969 180.410156 269.078125 181.75 269.078125 C 183.085938 269.078125 184.425781 269.042969 185.761719 268.976562 C 187.097656 268.914062 188.429688 268.8125 189.761719 268.683594 C 191.09375 268.550781 192.421875 268.386719 193.746094 268.191406 C 195.070312 267.996094 196.386719 267.765625 197.699219 267.503906 C 199.011719 267.246094 200.316406 266.953125 201.613281 266.625 C 202.910156 266.300781 204.199219 265.945312 205.480469 265.554688 C 206.761719 265.167969 208.03125 264.75 209.289062 264.296875 C 210.550781 263.847656 211.796875 263.367188 213.035156 262.855469 C 214.269531 262.34375 215.492188 261.800781 216.703125 261.226562 C 217.910156 260.65625 219.105469 260.054688 220.285156 259.421875 C 221.464844 258.792969 222.628906 258.132812 223.777344 257.445312 C 224.925781 256.757812 226.054688 256.042969 227.167969 255.300781 C 228.28125 254.554688 229.375 253.785156 230.449219 252.988281 C 231.523438 252.191406 232.578125 251.367188 233.613281 250.519531 C 234.644531 249.671875 235.660156 248.796875 236.648438 247.898438 C 237.640625 247 238.609375 246.078125 239.554688 245.132812 C 240.503906 244.1875 241.425781 243.21875 242.324219 242.226562 C 243.222656 241.234375 244.09375 240.222656 244.945312 239.1875 C 245.792969 238.152344 246.613281 237.101562 247.414062 236.023438 C 248.210938 234.949219 248.980469 233.855469 249.722656 232.746094 C 250.464844 231.632812 251.179688 230.503906 251.871094 229.355469 C 252.558594 228.207031 253.214844 227.042969 253.847656 225.863281 C 254.476562 224.683594 255.078125 223.488281 255.652344 222.277344 C 256.222656 221.070312 256.765625 219.847656 257.277344 218.609375 C 257.789062 217.375 258.269531 216.128906 258.722656 214.867188 C 259.171875 213.609375 259.589844 212.335938 259.980469 211.058594 C 260.367188 209.777344 260.726562 208.488281 261.050781 207.191406 C 261.375 205.890625 261.667969 204.585938 261.929688 203.273438 C 262.191406 201.964844 262.417969 200.644531 262.613281 199.320312 C 262.8125 198 262.976562 196.671875 263.105469 195.339844 C 263.238281 194.007812 263.335938 192.675781 263.402344 191.339844 C 263.46875 190 263.5 188.664062 263.5 187.328125 C 263.5 185.988281 263.46875 184.652344 263.402344 183.316406 C 263.335938 181.980469 263.238281 180.644531 263.105469 179.3125 C 262.972656 177.984375 262.808594 176.65625 262.613281 175.332031 C 262.417969 174.007812 262.1875 172.691406 261.925781 171.378906 C 261.667969 170.066406 261.375 168.761719 261.046875 167.464844 C 260.722656 166.167969 260.367188 164.878906 259.976562 163.597656 C 259.589844 162.316406 259.167969 161.046875 258.71875 159.789062 C 258.269531 158.527344 257.785156 157.28125 257.273438 156.042969 C 256.761719 154.808594 256.21875 153.585938 255.648438 152.375 C 255.074219 151.167969 254.476562 149.972656 253.84375 148.792969 C 253.214844 147.613281 252.554688 146.449219 251.867188 145.300781 C 251.179688 144.152344 250.460938 143.023438 249.71875 141.910156 C 248.976562 140.800781 248.207031 139.707031 247.410156 138.628906 C 246.613281 137.554688 245.789062 136.5 244.941406 135.46875 C 244.089844 134.433594 243.21875 133.421875 242.320312 132.429688 C 241.421875 131.4375 240.5 130.46875 239.554688 129.523438 C 238.605469 128.578125 237.636719 127.65625 236.648438 126.757812 C 235.65625 125.859375 234.644531 124.984375 233.609375 124.136719 C 232.574219 123.289062 231.519531 122.464844 230.445312 121.667969 C 229.371094 120.871094 228.277344 120.101562 227.164062 119.355469 C 226.054688 118.613281 224.921875 117.898438 223.777344 117.210938 C 222.628906 116.523438 221.464844 115.863281 220.285156 115.234375 C 219.105469 114.601562 217.910156 114 216.699219 113.429688 C 215.492188 112.855469 214.269531 112.3125 213.03125 111.800781 C 211.796875 111.289062 210.550781 110.808594 209.289062 110.359375 C 208.03125 109.90625 206.761719 109.488281 205.480469 109.097656 C 204.199219 108.710938 202.910156 108.355469 201.613281 108.027344 C 200.316406 107.703125 199.011719 107.410156 197.699219 107.148438 C 196.386719 106.886719 195.066406 106.660156 193.746094 106.460938 C 192.421875 106.265625 191.09375 106.101562 189.761719 105.972656 C 188.429688 105.839844 187.097656 105.742188 185.761719 105.675781 C 184.425781 105.609375 183.085938 105.578125 181.75 105.578125 Z M 183.386719 237.859375 C 183.152344 238.039062 182.894531 238.175781 182.613281 238.269531 C 182.332031 238.367188 182.046875 238.414062 181.75 238.414062 C 181.453125 238.414062 181.167969 238.367188 180.886719 238.269531 C 180.605469 238.175781 180.347656 238.039062 180.113281 237.859375 C 178.632812 236.734375 143.863281 209.757812 143.863281 174.144531 C 143.863281 172.902344 143.925781 171.664062 144.046875 170.429688 C 144.167969 169.195312 144.347656 167.96875 144.589844 166.75 C 144.832031 165.535156 145.132812 164.332031 145.492188 163.144531 C 145.851562 161.957031 146.269531 160.789062 146.742188 159.640625 C 147.21875 158.496094 147.75 157.375 148.332031 156.28125 C 148.917969 155.183594 149.554688 154.121094 150.246094 153.089844 C 150.933594 152.058594 151.671875 151.0625 152.460938 150.101562 C 153.246094 149.144531 154.078125 148.222656 154.957031 147.347656 C 155.832031 146.46875 156.75 145.636719 157.710938 144.847656 C 158.671875 144.0625 159.664062 143.324219 160.699219 142.632812 C 161.730469 141.945312 162.792969 141.304688 163.886719 140.722656 C 164.980469 140.136719 166.101562 139.605469 167.25 139.128906 C 168.394531 138.65625 169.5625 138.238281 170.75 137.878906 C 171.9375 137.515625 173.140625 137.214844 174.355469 136.972656 C 175.574219 136.730469 176.800781 136.550781 178.035156 136.429688 C 179.269531 136.304688 180.507812 136.246094 181.75 136.246094 C 182.992188 136.246094 184.230469 136.304688 185.464844 136.429688 C 186.699219 136.550781 187.925781 136.730469 189.144531 136.972656 C 190.359375 137.214844 191.5625 137.515625 192.75 137.878906 C 193.9375 138.238281 195.105469 138.65625 196.25 139.128906 C 197.398438 139.605469 198.519531 140.136719 199.613281 140.722656 C 200.707031 141.304688 201.769531 141.945312 202.800781 142.632812 C 203.835938 143.324219 204.828125 144.0625 205.789062 144.847656 C 206.75 145.636719 207.667969 146.46875 208.542969 147.347656 C 209.421875 148.222656 210.253906 149.144531 211.039062 150.101562 C 211.828125 151.0625 212.566406 152.058594 213.253906 153.089844 C 213.945312 154.121094 214.582031 155.183594 215.167969 156.28125 C 215.75 157.375 216.28125 158.496094 216.753906 159.640625 C 217.230469 160.789062 217.648438 161.957031 218.007812 163.144531 C 218.367188 164.332031 218.667969 165.535156 218.910156 166.75 C 219.152344 167.96875 219.332031 169.195312 219.453125 170.429688 C 219.574219 171.664062 219.636719 172.902344 219.636719 174.144531 C 219.636719 209.757812 184.867188 236.734375 183.386719 237.859375 Z M 183.386719 237.859375 " fill-opacity="1" fill-rule="nonzero"/></g></svg>