<svg xmlns="http://www.w3.org/2000/svg" xmlns:xlink="http://www.w3.org/1999/xlink" width="200" zoomAndPan="magnify" viewBox="0 0 150 149.999998" height="200" preserveAspectRatio="xMidYMid meet" version="1.0"><defs><clipPath id="f9688612a9"><path d="M 76 42.625 L 85 42.625 L 85 94 L 76 94 Z M 76 42.625 " clip-rule="nonzero"/></clipPath><clipPath id="6e46091a1a"><path d="M 47.027344 47 L 91 47 L 91 97.375 L 47.027344 97.375 Z M 47.027344 47 " clip-rule="nonzero"/></clipPath><clipPath id="653d58f981"><path d="M 48 47 L 99.527344 47 L 99.527344 90 L 48 90 Z M 48 47 " clip-rule="nonzero"/></clipPath></defs><path fill="#d8a240" d="M 61.175781 73.960938 L 61.175781 93.382812 L 55.441406 90.078125 L 54.195312 89.359375 L 53.578125 88.996094 L 53.578125 73.960938 Z M 61.175781 73.960938 " fill-opacity="1" fill-rule="nonzero"/><path fill="#d8a240" d="M 65.1875 61.726562 L 72.792969 61.726562 L 72.792969 95.414062 L 65.1875 95.414062 Z M 65.1875 61.726562 " fill-opacity="1" fill-rule="nonzero"/><g clip-path="url(#f9688612a9)"><path fill="#d8a240" d="M 84.398438 42.625 L 84.398438 88.863281 L 80.597656 91.125 L 76.792969 93.394531 L 76.792969 42.625 Z M 84.398438 42.625 " fill-opacity="1" fill-rule="nonzero"/></g><g clip-path="url(#6e46091a1a)"><path fill="#ffffff" d="M 90.382812 59.644531 L 90.253906 59.566406 L 89.238281 58.984375 C 88.863281 59.511719 88.445312 60.074219 87.992188 60.667969 L 88.820312 61.152344 L 88.820312 68.871094 C 89.570312 68.066406 90.261719 67.273438 90.902344 66.523438 L 90.902344 60.558594 C 90.902344 60.171875 90.703125 59.832031 90.382812 59.644531 Z M 89.65625 69.695312 C 89.382812 69.984375 89.105469 70.28125 88.820312 70.578125 L 88.820312 84.046875 L 85.492188 85.964844 L 84.398438 86.59375 L 76.792969 90.980469 L 75.703125 91.609375 L 72.792969 93.296875 L 69.144531 95.402344 L 69 95.488281 L 68.855469 95.402344 L 65.199219 93.285156 L 61.183594 90.96875 L 58.1875 89.25 L 56.964844 88.546875 L 55.773438 87.863281 L 53.578125 86.59375 L 52.445312 85.933594 L 51.210938 85.214844 L 50.007812 84.523438 L 49.160156 84.039062 L 49.160156 61.144531 L 68.988281 49.703125 L 75.703125 53.582031 L 75.703125 51.167969 L 69.507812 47.597656 C 69.1875 47.410156 68.792969 47.410156 68.472656 47.597656 L 47.59375 59.644531 C 47.273438 59.832031 47.078125 60.171875 47.078125 60.546875 L 47.078125 84.644531 C 47.078125 85.019531 47.273438 85.359375 47.59375 85.546875 L 48.398438 86.011719 L 49.644531 86.738281 L 52.765625 88.535156 L 52.984375 88.65625 L 53.578125 88.996094 L 54.195312 89.351562 L 55.441406 90.066406 L 61.175781 93.382812 L 68.472656 97.59375 C 68.636719 97.683594 68.8125 97.738281 68.988281 97.738281 C 69.164062 97.738281 69.351562 97.695312 69.507812 97.59375 L 76.792969 93.394531 L 81.226562 90.839844 L 84.386719 89.007812 L 85.480469 88.378906 L 90.375 85.558594 C 90.691406 85.371094 90.890625 85.027344 90.890625 84.65625 L 90.890625 68.320312 C 90.503906 68.769531 90.085938 69.234375 89.65625 69.695312 Z M 89.65625 69.695312 " fill-opacity="1" fill-rule="nonzero"/></g><g clip-path="url(#653d58f981)"><path fill="#ffffff" d="M 99.488281 59.644531 L 96.777344 58.1875 C 96.324219 58.925781 94.519531 62.222656 90.902344 66.511719 C 90.261719 67.273438 89.570312 68.054688 88.820312 68.859375 C 87.519531 70.257812 86.050781 71.714844 84.398438 73.203125 C 82.207031 75.164062 79.679688 77.171875 76.792969 79.109375 C 75.527344 79.957031 74.191406 80.808594 72.78125 81.625 C 70.445312 82.980469 67.921875 84.28125 65.175781 85.480469 C 63.886719 86.042969 62.550781 86.59375 61.164062 87.101562 C 59.808594 87.609375 58.398438 88.09375 56.941406 88.546875 C 56.039062 88.832031 55.125 89.097656 54.1875 89.359375 L 53.570312 89.007812 L 52.972656 88.667969 L 52.753906 88.546875 L 49.632812 86.75 L 48.398438 86.011719 C 48.53125 85.976562 48.675781 85.945312 48.808594 85.898438 C 49.621094 85.679688 50.417969 85.460938 51.210938 85.226562 C 52.015625 84.984375 52.808594 84.742188 53.578125 84.476562 C 56.28125 83.585938 58.804688 82.59375 61.183594 81.523438 C 62.574219 80.894531 63.90625 80.246094 65.199219 79.574219 C 67.976562 78.117188 70.5 76.574219 72.804688 75 C 74.226562 74.019531 75.558594 73.015625 76.816406 72.023438 C 79.835938 69.609375 82.347656 67.183594 84.421875 64.933594 C 85.820312 63.402344 87.011719 61.96875 88.015625 60.667969 C 88.464844 60.074219 88.886719 59.511719 89.261719 58.984375 C 90.230469 57.625 90.945312 56.492188 91.433594 55.699219 C 91.496094 55.597656 91.554688 55.5 91.609375 55.398438 L 90.628906 54.871094 L 89.832031 54.453125 L 88.664062 53.824219 L 88.984375 53.625 L 98.332031 47.828125 L 99.09375 47.355469 L 99.136719 48.675781 Z M 99.488281 59.644531 " fill-opacity="1" fill-rule="nonzero"/></g></svg>