<svg xmlns="http://www.w3.org/2000/svg" xmlns:xlink="http://www.w3.org/1999/xlink" width="200" zoomAndPan="magnify" viewBox="0 0 150 149.999998" height="200" preserveAspectRatio="xMidYMid meet" version="1.0"><defs><clipPath id="420d33037d"><path d="M 38.917969 42.984375 L 102.667969 42.984375 L 102.667969 106.734375 L 38.917969 106.734375 Z M 38.917969 42.984375 " clip-rule="nonzero"/></clipPath></defs><g clip-path="url(#420d33037d)"><path fill="#000000" d="M 102.667969 74.859375 C 102.667969 75.90625 102.617188 76.945312 102.515625 77.984375 C 102.414062 79.023438 102.261719 80.054688 102.054688 81.078125 C 101.851562 82.101562 101.597656 83.113281 101.296875 84.113281 C 100.992188 85.113281 100.640625 86.09375 100.242188 87.058594 C 99.84375 88.023438 99.398438 88.964844 98.90625 89.886719 C 98.414062 90.808594 97.878906 91.703125 97.296875 92.570312 C 96.71875 93.4375 96.097656 94.277344 95.433594 95.082031 C 94.769531 95.890625 94.070312 96.660156 93.332031 97.398438 C 92.59375 98.136719 91.820312 98.839844 91.015625 99.5 C 90.207031 100.164062 89.371094 100.785156 88.503906 101.363281 C 87.632812 101.945312 86.742188 102.480469 85.820312 102.972656 C 84.898438 103.464844 83.957031 103.910156 82.992188 104.308594 C 82.027344 104.710938 81.046875 105.058594 80.046875 105.363281 C 79.046875 105.667969 78.035156 105.921875 77.011719 106.125 C 75.988281 106.328125 74.957031 106.480469 73.917969 106.582031 C 72.878906 106.683594 71.835938 106.734375 70.792969 106.734375 C 69.75 106.734375 68.707031 106.683594 67.667969 106.582031 C 66.628906 106.480469 65.597656 106.328125 64.574219 106.125 C 63.550781 105.921875 62.539062 105.667969 61.542969 105.363281 C 60.542969 105.058594 59.558594 104.710938 58.597656 104.308594 C 57.632812 103.910156 56.6875 103.464844 55.769531 102.972656 C 54.847656 102.480469 53.953125 101.945312 53.085938 101.363281 C 52.21875 100.785156 51.378906 100.164062 50.574219 99.5 C 49.765625 98.839844 48.992188 98.136719 48.253906 97.398438 C 47.515625 96.660156 46.816406 95.890625 46.152344 95.082031 C 45.492188 94.277344 44.871094 93.4375 44.289062 92.570312 C 43.710938 91.703125 43.175781 90.808594 42.683594 89.886719 C 42.191406 88.964844 41.746094 88.023438 41.34375 87.058594 C 40.945312 86.09375 40.59375 85.113281 40.292969 84.113281 C 39.988281 83.113281 39.734375 82.101562 39.53125 81.078125 C 39.328125 80.054688 39.175781 79.023438 39.074219 77.984375 C 38.96875 76.945312 38.917969 75.90625 38.917969 74.859375 C 38.917969 73.816406 38.96875 72.777344 39.074219 71.738281 C 39.175781 70.699219 39.328125 69.667969 39.53125 68.644531 C 39.734375 67.617188 39.988281 66.605469 40.292969 65.609375 C 40.59375 64.609375 40.945312 63.628906 41.34375 62.664062 C 41.746094 61.699219 42.191406 60.757812 42.683594 59.835938 C 43.175781 58.914062 43.710938 58.019531 44.289062 57.152344 C 44.871094 56.285156 45.492188 55.445312 46.152344 54.640625 C 46.816406 53.832031 47.515625 53.058594 48.253906 52.320312 C 48.992188 51.582031 49.765625 50.882812 50.574219 50.222656 C 51.378906 49.558594 52.21875 48.9375 53.085938 48.359375 C 53.953125 47.777344 54.847656 47.242188 55.769531 46.75 C 56.6875 46.257812 57.632812 45.8125 58.597656 45.414062 C 59.558594 45.011719 60.542969 44.660156 61.542969 44.359375 C 62.539062 44.054688 63.550781 43.800781 64.574219 43.597656 C 65.597656 43.394531 66.628906 43.242188 67.667969 43.140625 C 68.707031 43.039062 69.75 42.984375 70.792969 42.984375 C 71.835938 42.984375 72.878906 43.039062 73.917969 43.140625 C 74.957031 43.242188 75.988281 43.394531 77.011719 43.597656 C 78.035156 43.800781 79.046875 44.054688 80.046875 44.359375 C 81.046875 44.660156 82.027344 45.011719 82.992188 45.414062 C 83.957031 45.8125 84.898438 46.257812 85.820312 46.75 C 86.742188 47.242188 87.632812 47.777344 88.503906 48.359375 C 89.371094 48.9375 90.207031 49.558594 91.015625 50.222656 C 91.820312 50.882812 92.59375 51.582031 93.332031 52.320312 C 94.070312 53.058594 94.769531 53.832031 95.433594 54.640625 C 96.097656 55.445312 96.71875 56.285156 97.296875 57.152344 C 97.878906 58.019531 98.414062 58.914062 98.90625 59.835938 C 99.398438 60.757812 99.84375 61.699219 100.242188 62.664062 C 100.640625 63.628906 100.992188 64.609375 101.296875 65.609375 C 101.597656 66.605469 101.851562 67.617188 102.054688 68.644531 C 102.261719 69.667969 102.414062 70.699219 102.515625 71.738281 C 102.617188 72.777344 102.667969 73.816406 102.667969 74.859375 Z M 102.667969 74.859375 " fill-opacity="1" fill-rule="nonzero"/></g><path fill="#ffffff" d="M 84.878906 60.773438 C 81.117188 57.011719 76.117188 54.9375 70.792969 54.9375 C 65.472656 54.9375 60.46875 57.011719 56.707031 60.773438 C 52.945312 64.535156 50.871094 69.539062 50.871094 74.859375 C 50.871094 80.183594 52.945312 85.183594 56.707031 88.949219 C 60.46875 92.710938 65.472656 94.78125 70.792969 94.78125 C 76.117188 94.78125 81.117188 92.710938 84.878906 88.949219 C 88.644531 85.183594 90.714844 80.183594 90.714844 74.859375 C 90.714844 69.539062 88.644531 64.535156 84.878906 60.773438 Z M 53.074219 74.859375 C 53.074219 72.640625 53.488281 70.519531 54.234375 68.558594 L 61.402344 68.558594 C 61.078125 70.5625 60.910156 72.6875 60.910156 74.859375 C 60.910156 76.960938 61.066406 79.015625 61.367188 80.960938 L 54.15625 80.960938 C 53.457031 79.058594 53.074219 77.003906 53.074219 74.859375 Z M 63.113281 74.859375 C 63.113281 72.671875 63.292969 70.546875 63.632812 68.558594 L 69.691406 68.558594 L 69.691406 80.960938 L 63.597656 80.960938 C 63.28125 79.03125 63.113281 76.976562 63.113281 74.859375 Z M 76.003906 62.019531 C 76.609375 63.3125 77.109375 64.773438 77.5 66.355469 L 71.894531 66.355469 L 71.894531 57.347656 C 73.390625 57.894531 74.84375 59.53125 76.003906 62.019531 Z M 69.691406 57.347656 L 69.691406 66.355469 L 64.089844 66.355469 C 64.476562 64.773438 64.980469 63.3125 65.582031 62.019531 C 66.746094 59.53125 68.199219 57.894531 69.691406 57.347656 Z M 69.691406 83.164062 L 69.691406 92.375 C 68.199219 91.828125 66.746094 90.191406 65.582031 87.703125 C 64.953125 86.351562 64.4375 84.824219 64.039062 83.164062 Z M 71.894531 92.375 L 71.894531 83.164062 L 77.546875 83.164062 C 77.152344 84.824219 76.632812 86.351562 76.003906 87.703125 C 74.84375 90.191406 73.390625 91.828125 71.894531 92.375 Z M 71.894531 80.960938 L 71.894531 68.558594 L 77.957031 68.558594 C 78.296875 70.546875 78.472656 72.671875 78.472656 74.859375 C 78.472656 76.976562 78.308594 79.03125 77.988281 80.960938 Z M 80.1875 68.558594 L 87.351562 68.558594 C 88.101562 70.519531 88.511719 72.640625 88.511719 74.859375 C 88.511719 77.003906 88.128906 79.058594 87.429688 80.960938 L 80.21875 80.960938 C 80.519531 79.015625 80.675781 76.960938 80.675781 74.859375 C 80.675781 72.6875 80.507812 70.5625 80.1875 68.558594 Z M 86.332031 66.355469 L 79.761719 66.355469 C 79.320312 64.429688 78.730469 62.652344 78 61.085938 C 77.433594 59.875 76.800781 58.828125 76.117188 57.960938 C 80.5 59.34375 84.152344 62.390625 86.332031 66.355469 Z M 65.472656 57.960938 C 64.785156 58.828125 64.152344 59.875 63.585938 61.085938 C 62.855469 62.652344 62.265625 64.429688 61.828125 66.355469 L 55.253906 66.355469 C 57.433594 62.390625 61.085938 59.34375 65.472656 57.960938 Z M 55.144531 83.164062 L 61.78125 83.164062 C 62.222656 85.167969 62.832031 87.015625 63.585938 88.636719 C 64.152344 89.847656 64.785156 90.894531 65.472656 91.761719 C 61.011719 90.355469 57.3125 87.230469 55.144531 83.164062 Z M 76.117188 91.761719 C 76.800781 90.894531 77.433594 89.847656 78 88.636719 C 78.757812 87.015625 79.363281 85.167969 79.808594 83.164062 L 86.441406 83.164062 C 84.277344 87.230469 80.574219 90.355469 76.117188 91.761719 Z M 76.117188 91.761719 " fill-opacity="1" fill-rule="nonzero"/></svg>