<svg xmlns="http://www.w3.org/2000/svg" xmlns:xlink="http://www.w3.org/1999/xlink" width="400" zoomAndPan="magnify" viewBox="0 0 300 299.999988" height="400" preserveAspectRatio="xMidYMid meet" version="1.0"><defs><clipPath id="4fea617482"><path d="M 109.460938 108.996094 L 183.710938 108.996094 L 183.710938 183.246094 L 109.460938 183.246094 Z M 109.460938 108.996094 " clip-rule="nonzero"/></clipPath></defs><g clip-path="url(#4fea617482)"><path fill="#000000" d="M 146.667969 108.996094 C 126.117188 108.996094 109.460938 125.652344 109.460938 146.203125 C 109.460938 166.75 126.117188 183.410156 146.667969 183.410156 C 167.214844 183.410156 183.875 166.75 183.875 146.203125 C 183.875 125.652344 167.214844 108.996094 146.667969 108.996094 Z M 113.695312 148.269531 L 121.929688 148.269531 C 122.121094 153.449219 123.007812 158.335938 124.46875 162.738281 L 118.054688 162.738281 C 115.558594 158.433594 114.023438 153.519531 113.695312 148.269531 Z M 148.734375 125.53125 L 148.734375 113.296875 C 154.410156 114.199219 159.402344 118.785156 162.789062 125.53125 Z M 164.546875 129.664062 C 166.105469 133.972656 167.066406 138.882812 167.269531 144.132812 L 148.734375 144.132812 L 148.734375 129.664062 Z M 144.597656 113.296875 L 144.597656 125.53125 L 130.546875 125.53125 C 133.925781 118.785156 138.921875 114.199219 144.597656 113.296875 Z M 144.597656 129.664062 L 144.597656 144.132812 L 126.0625 144.132812 C 126.265625 138.882812 127.226562 133.972656 128.785156 129.664062 Z M 121.933594 144.132812 L 113.695312 144.132812 C 114.023438 138.882812 115.558594 133.972656 118.050781 129.664062 L 124.46875 129.664062 C 123.011719 134.066406 122.121094 138.957031 121.933594 144.132812 Z M 126.0625 148.269531 L 144.597656 148.269531 L 144.597656 162.738281 L 128.785156 162.738281 C 127.226562 158.433594 126.265625 153.519531 126.0625 148.269531 Z M 144.597656 166.871094 L 144.597656 179.105469 C 138.921875 178.203125 133.925781 173.617188 130.546875 166.871094 Z M 148.734375 179.105469 L 148.734375 166.871094 L 162.789062 166.871094 C 159.40625 173.617188 154.410156 178.203125 148.734375 179.105469 Z M 148.734375 162.738281 L 148.734375 148.269531 L 167.273438 148.269531 C 167.066406 153.519531 166.109375 158.433594 164.550781 162.738281 Z M 171.402344 148.269531 L 179.632812 148.269531 C 179.308594 153.519531 177.773438 158.433594 175.277344 162.738281 L 168.863281 162.738281 C 170.320312 158.335938 171.210938 153.449219 171.402344 148.269531 Z M 171.402344 144.132812 C 171.210938 138.957031 170.320312 134.066406 168.863281 129.664062 L 175.277344 129.664062 C 177.773438 133.972656 179.308594 138.882812 179.632812 144.132812 Z M 172.460938 125.53125 L 167.289062 125.53125 C 165.804688 122.214844 163.96875 119.300781 161.875 116.851562 C 165.984375 118.984375 169.589844 121.949219 172.460938 125.53125 Z M 131.460938 116.851562 C 129.363281 119.300781 127.527344 122.214844 126.042969 125.53125 L 120.871094 125.53125 C 123.746094 121.949219 127.347656 118.988281 131.460938 116.851562 Z M 120.871094 166.871094 L 126.046875 166.871094 C 127.527344 170.1875 129.363281 173.105469 131.460938 175.550781 C 127.347656 173.417969 123.746094 170.453125 120.871094 166.871094 Z M 161.875 175.550781 C 163.96875 173.101562 165.804688 170.1875 167.289062 166.871094 L 172.460938 166.871094 C 169.589844 170.453125 165.984375 173.417969 161.875 175.550781 Z M 161.875 175.550781 " fill-opacity="1" fill-rule="nonzero"/></g></svg>