<svg xmlns="http://www.w3.org/2000/svg" xmlns:xlink="http://www.w3.org/1999/xlink" width="400" zoomAndPan="magnify" viewBox="0 0 300 299.999988" height="400" preserveAspectRatio="xMidYMid meet" version="1.0"><defs><clipPath id="6a2505f3fa"><path d="M 105.425781 126.257812 L 181.925781 126.257812 L 181.925781 156 L 105.425781 156 Z M 105.425781 126.257812 " clip-rule="nonzero"/></clipPath><clipPath id="a96c2e9324"><path d="M 105.425781 139 L 181.925781 139 L 181.925781 184.757812 L 105.425781 184.757812 Z M 105.425781 139 " clip-rule="nonzero"/></clipPath></defs><g clip-path="url(#6a2505f3fa)"><path fill="#ffffff" d="M 143.601562 155.128906 L 181.769531 132.226562 L 181.769531 132.128906 C 181.769531 131.742188 181.734375 131.359375 181.65625 130.984375 C 181.582031 130.605469 181.472656 130.238281 181.324219 129.882812 C 181.175781 129.523438 180.996094 129.1875 180.78125 128.867188 C 180.566406 128.546875 180.324219 128.25 180.050781 127.976562 C 179.777344 127.703125 179.480469 127.460938 179.160156 127.246094 C 178.839844 127.03125 178.5 126.851562 178.144531 126.703125 C 177.789062 126.554688 177.421875 126.445312 177.042969 126.371094 C 176.664062 126.292969 176.285156 126.257812 175.898438 126.257812 L 111.304688 126.257812 C 110.917969 126.257812 110.535156 126.292969 110.15625 126.371094 C 109.78125 126.445312 109.414062 126.554688 109.054688 126.703125 C 108.699219 126.851562 108.363281 127.03125 108.042969 127.246094 C 107.71875 127.460938 107.425781 127.703125 107.152344 127.976562 C 106.878906 128.25 106.636719 128.546875 106.421875 128.867188 C 106.207031 129.1875 106.027344 129.523438 105.878906 129.882812 C 105.730469 130.238281 105.621094 130.605469 105.542969 130.984375 C 105.46875 131.359375 105.429688 131.742188 105.429688 132.128906 L 105.429688 132.226562 Z M 143.601562 155.128906 " fill-opacity="1" fill-rule="nonzero"/></g><g clip-path="url(#a96c2e9324)"><path fill="#ffffff" d="M 145.113281 161.070312 C 144.648438 161.351562 144.144531 161.488281 143.601562 161.488281 C 143.058594 161.488281 142.554688 161.351562 142.089844 161.070312 L 105.429688 139.074219 L 105.429688 179.105469 C 105.429688 179.492188 105.46875 179.875 105.542969 180.253906 C 105.621094 180.628906 105.730469 180.996094 105.878906 181.355469 C 106.027344 181.710938 106.207031 182.046875 106.421875 182.371094 C 106.636719 182.691406 106.878906 182.988281 107.152344 183.257812 C 107.425781 183.53125 107.71875 183.773438 108.042969 183.988281 C 108.363281 184.203125 108.699219 184.382812 109.054688 184.53125 C 109.414062 184.679688 109.78125 184.789062 110.15625 184.867188 C 110.535156 184.941406 110.917969 184.980469 111.304688 184.980469 L 175.898438 184.980469 C 176.285156 184.980469 176.664062 184.941406 177.042969 184.867188 C 177.421875 184.789062 177.789062 184.679688 178.144531 184.53125 C 178.5 184.382812 178.839844 184.203125 179.160156 183.988281 C 179.480469 183.773438 179.777344 183.53125 180.050781 183.257812 C 180.324219 182.988281 180.566406 182.691406 180.78125 182.371094 C 180.996094 182.046875 181.175781 181.710938 181.324219 181.355469 C 181.472656 180.996094 181.582031 180.628906 181.65625 180.253906 C 181.734375 179.875 181.769531 179.492188 181.769531 179.105469 L 181.769531 139.074219 Z M 145.113281 161.070312 " fill-opacity="1" fill-rule="nonzero"/></g></svg>