<svg xmlns="http://www.w3.org/2000/svg" xmlns:xlink="http://www.w3.org/1999/xlink" width="400" zoomAndPan="magnify" viewBox="0 0 300 299.999988" height="400" preserveAspectRatio="xMidYMid meet" version="1.0"><defs><clipPath id="b4bc127d6f"><path d="M 130.703125 115.4375 L 183.203125 115.4375 L 183.203125 190.4375 L 130.703125 190.4375 Z M 130.703125 115.4375 " clip-rule="nonzero"/></clipPath></defs><g clip-path="url(#b4bc127d6f)"><path fill="#ffffff" d="M 157.046875 115.4375 C 142.503906 115.4375 130.707031 127.234375 130.707031 141.777344 C 130.707031 161.53125 157.046875 190.695312 157.046875 190.695312 C 157.046875 190.695312 183.386719 161.53125 183.386719 141.777344 C 183.386719 127.234375 171.589844 115.4375 157.046875 115.4375 Z M 157.046875 151.183594 C 151.855469 151.183594 147.640625 146.96875 147.640625 141.777344 C 147.640625 136.582031 151.855469 132.371094 157.046875 132.371094 C 162.238281 132.371094 166.453125 136.582031 166.453125 141.777344 C 166.453125 146.96875 162.238281 151.183594 157.046875 151.183594 Z M 157.046875 151.183594 " fill-opacity="1" fill-rule="nonzero"/></g></svg>