<svg xmlns="http://www.w3.org/2000/svg" xmlns:xlink="http://www.w3.org/1999/xlink" width="400" zoomAndPan="magnify" viewBox="0 0 300 299.999988" height="400" preserveAspectRatio="xMidYMid meet" version="1.0"><defs><clipPath id="a38fafa564"><path d="M 141 124.109375 L 202 124.109375 L 202 186 L 141 186 Z M 141 124.109375 " clip-rule="nonzero"/></clipPath></defs><g clip-path="url(#a38fafa564)"><path fill="#ffffff" d="M 199.132812 169.625 L 193.105469 163.601562 C 189.78125 160.273438 184.386719 160.273438 181.0625 163.601562 C 179.820312 164.839844 179.050781 166.363281 178.730469 167.957031 C 168.796875 166.101562 159.128906 156.476562 158.527344 147.871094 C 160.160156 147.570312 161.726562 146.792969 162.988281 145.527344 C 166.3125 142.203125 166.3125 136.808594 162.988281 133.480469 L 156.960938 127.453125 C 153.636719 124.128906 148.242188 124.128906 144.914062 127.453125 C 126.839844 145.527344 181.058594 199.746094 199.132812 181.671875 C 202.457031 178.347656 202.457031 172.953125 199.132812 169.625 Z M 199.132812 169.625 " fill-opacity="1" fill-rule="nonzero"/></g></svg>