<svg xmlns="http://www.w3.org/2000/svg" xmlns:xlink="http://www.w3.org/1999/xlink" width="400" zoomAndPan="magnify" viewBox="0 0 300 299.999988" height="400" preserveAspectRatio="xMidYMid meet" version="1.0"><defs><clipPath id="20a238d894"><path d="M 107.230469 107.492188 L 182 107.492188 L 182 182.492188 L 107.230469 182.492188 Z M 107.230469 107.492188 " clip-rule="nonzero"/></clipPath></defs><g clip-path="url(#20a238d894)"><path fill="#ffffff" d="M 144.554688 107.492188 C 123.941406 107.492188 107.230469 124.203125 107.230469 144.816406 C 107.230469 165.429688 123.941406 182.140625 144.554688 182.140625 C 165.167969 182.140625 181.878906 165.429688 181.878906 144.816406 C 181.878906 124.203125 165.167969 107.492188 144.554688 107.492188 Z M 111.480469 146.890625 L 119.742188 146.890625 C 119.929688 152.085938 120.824219 156.992188 122.289062 161.40625 L 115.851562 161.40625 C 113.351562 157.085938 111.808594 152.160156 111.480469 146.890625 Z M 146.628906 124.082031 L 146.628906 111.808594 C 152.324219 112.710938 157.332031 117.3125 160.726562 124.082031 Z M 162.492188 128.226562 C 164.058594 132.546875 165.019531 137.476562 165.222656 142.742188 L 146.628906 142.742188 L 146.628906 128.226562 Z M 142.480469 111.808594 L 142.480469 124.082031 L 128.382812 124.082031 C 131.777344 117.3125 136.785156 112.710938 142.480469 111.808594 Z M 142.480469 128.226562 L 142.480469 142.742188 L 123.886719 142.742188 C 124.089844 137.476562 125.054688 132.546875 126.617188 128.226562 Z M 119.742188 142.742188 L 111.480469 142.742188 C 111.808594 137.476562 113.351562 132.546875 115.851562 128.226562 L 122.285156 128.226562 C 120.824219 132.644531 119.933594 137.550781 119.742188 142.742188 Z M 123.886719 146.890625 L 142.480469 146.890625 L 142.480469 161.40625 L 126.617188 161.40625 C 125.054688 157.085938 124.089844 152.160156 123.886719 146.890625 Z M 142.480469 165.550781 L 142.480469 177.824219 C 136.785156 176.917969 131.777344 172.320312 128.382812 165.550781 Z M 146.628906 177.824219 L 146.628906 165.550781 L 160.730469 165.550781 C 157.335938 172.320312 152.324219 176.917969 146.628906 177.824219 Z M 146.628906 161.40625 L 146.628906 146.890625 L 165.226562 146.890625 C 165.019531 152.160156 164.058594 157.085938 162.496094 161.40625 Z M 169.371094 146.890625 L 177.625 146.890625 C 177.300781 152.160156 175.761719 157.085938 173.257812 161.40625 L 166.820312 161.40625 C 168.285156 156.992188 169.175781 152.085938 169.371094 146.890625 Z M 169.371094 142.742188 C 169.175781 137.550781 168.285156 132.644531 166.820312 128.226562 L 173.257812 128.226562 C 175.761719 132.546875 177.300781 137.476562 177.625 142.742188 Z M 170.429688 124.082031 L 165.242188 124.082031 C 163.753906 120.753906 161.910156 117.828125 159.808594 115.375 C 163.933594 117.515625 167.550781 120.488281 170.429688 124.082031 Z M 129.300781 115.375 C 127.195312 117.828125 125.355469 120.753906 123.867188 124.082031 L 118.679688 124.082031 C 121.5625 120.488281 125.175781 117.515625 129.300781 115.375 Z M 118.679688 165.550781 L 123.871094 165.550781 C 125.355469 168.878906 127.195312 171.804688 129.300781 174.257812 C 125.175781 172.117188 121.5625 169.144531 118.679688 165.550781 Z M 159.808594 174.257812 C 161.914062 171.800781 163.753906 168.878906 165.242188 165.550781 L 170.429688 165.550781 C 167.550781 169.144531 163.933594 172.117188 159.808594 174.257812 Z M 159.808594 174.257812 " fill-opacity="1" fill-rule="nonzero"/></g></svg>