<svg xmlns="http://www.w3.org/2000/svg" xmlns:xlink="http://www.w3.org/1999/xlink" width="400" zoomAndPan="magnify" viewBox="0 0 300 299.999988" height="400" preserveAspectRatio="xMidYMid meet" version="1.0"><defs><clipPath id="80e54099ac"><path d="M 127 278.109375 L 132 278.109375 L 132 283 L 127 283 Z M 127 278.109375 " clip-rule="nonzero"/></clipPath><clipPath id="625cd2d1f4"><path d="M 112.535156 113.214844 L 187 113.214844 L 187 186.714844 L 112.535156 186.714844 Z M 112.535156 113.214844 " clip-rule="nonzero"/></clipPath></defs><g clip-path="url(#80e54099ac)"><path fill="#353132" d="M 130.808594 279.460938 C 130.988281 279.636719 131.125 279.84375 131.222656 280.078125 C 131.320312 280.3125 131.367188 280.554688 131.367188 280.808594 C 131.367188 281.0625 131.320312 281.304688 131.222656 281.539062 C 131.125 281.773438 130.988281 281.980469 130.808594 282.160156 C 130.628906 282.339844 130.421875 282.476562 130.1875 282.574219 C 129.957031 282.671875 129.710938 282.71875 129.457031 282.71875 C 129.203125 282.71875 128.960938 282.671875 128.726562 282.574219 C 128.492188 282.476562 128.285156 282.339844 128.109375 282.160156 C 127.929688 281.980469 127.789062 281.773438 127.695312 281.539062 C 127.597656 281.304688 127.546875 281.0625 127.546875 280.808594 C 127.546875 280.554688 127.597656 280.3125 127.695312 280.078125 C 127.789062 279.84375 127.929688 279.636719 128.109375 279.460938 C 128.285156 279.28125 128.492188 279.140625 128.726562 279.046875 C 128.960938 278.949219 129.203125 278.898438 129.457031 278.898438 C 129.710938 278.898438 129.957031 278.949219 130.1875 279.046875 C 130.421875 279.140625 130.628906 279.28125 130.808594 279.460938 Z M 130.808594 279.460938 " fill-opacity="1" fill-rule="nonzero"/></g><g clip-path="url(#625cd2d1f4)"><path fill="#ffffff" d="M 178.371094 152.621094 L 173.117188 152.621094 L 173.117188 121.097656 C 173.117188 119.652344 171.9375 118.46875 170.492188 118.46875 L 133.710938 118.46875 C 132.265625 118.46875 131.085938 119.652344 131.085938 121.097656 L 131.085938 132.917969 L 125.832031 132.917969 L 125.832031 121.097656 C 125.832031 116.761719 129.378906 113.214844 133.710938 113.214844 L 170.492188 113.214844 C 174.824219 113.214844 178.371094 116.761719 178.371094 121.097656 Z M 167.863281 121.097656 L 136.339844 121.097656 L 136.339844 126.351562 L 167.863281 126.351562 Z M 167.863281 128.980469 L 136.339844 128.980469 L 136.339844 134.234375 L 167.863281 134.234375 Z M 167.863281 136.859375 L 154.726562 136.859375 L 154.726562 142.113281 L 167.863281 142.113281 Z M 167.863281 144.742188 L 154.726562 144.742188 L 154.726562 149.996094 L 167.863281 149.996094 Z M 167.863281 152.621094 L 154.726562 152.621094 L 154.726562 157.875 L 167.863281 157.875 Z M 112.695312 149.996094 L 112.695312 144.742188 C 112.695312 140.40625 116.242188 136.859375 120.578125 136.859375 L 141.59375 136.859375 C 145.925781 136.859375 149.472656 140.40625 149.472656 144.742188 L 149.472656 149.996094 Z M 132.398438 146.054688 L 140.28125 146.054688 L 140.28125 140.800781 L 132.398438 140.800781 Z M 121.890625 146.054688 L 129.769531 146.054688 L 129.769531 140.800781 L 121.890625 140.800781 Z M 133.710938 168.386719 C 133.710938 166.941406 132.53125 165.757812 131.085938 165.757812 C 129.640625 165.757812 128.457031 166.941406 128.457031 168.386719 C 128.457031 169.828125 129.640625 171.011719 131.085938 171.011719 C 132.53125 171.011719 133.710938 169.828125 133.710938 168.386719 Z M 149.472656 155.25 L 149.472656 178.894531 C 149.472656 183.226562 145.925781 186.773438 141.59375 186.773438 L 120.578125 186.773438 C 116.242188 186.773438 112.695312 183.226562 112.695312 178.894531 L 112.695312 155.25 Z M 141.59375 181.519531 C 141.59375 178.105469 139.886719 175.085938 137.390625 173.113281 C 138.441406 171.800781 138.964844 170.09375 138.964844 168.386719 C 138.964844 164.050781 135.417969 160.503906 131.085938 160.503906 C 126.75 160.503906 123.203125 164.050781 123.203125 168.386719 C 123.203125 170.222656 123.859375 171.800781 124.78125 173.113281 C 122.285156 175.085938 120.578125 178.105469 120.578125 181.519531 L 125.832031 181.519531 C 125.832031 178.628906 128.195312 176.265625 131.085938 176.265625 C 133.972656 176.265625 136.339844 178.628906 136.339844 181.519531 Z M 184.152344 158.664062 C 182.574219 157.089844 180.605469 156.300781 178.371094 156.300781 C 176.140625 156.300781 174.167969 157.089844 172.59375 158.664062 L 156.828125 174.425781 C 156.304688 174.953125 156.042969 175.609375 156.042969 176.265625 L 156.042969 184.148438 C 156.042969 185.59375 157.222656 186.773438 158.667969 186.773438 L 166.550781 186.773438 C 167.207031 186.773438 167.863281 186.511719 168.390625 185.988281 L 184.152344 170.222656 C 187.304688 167.070312 187.304688 161.816406 184.152344 158.664062 Z M 184.152344 158.664062 " fill-opacity="1" fill-rule="nonzero"/></g></svg>